<svg height="100pt" preserveAspectRatio="xMidYMid meet" viewBox="0 0 100 100" width="100pt" xmlns="http://www.w3.org/2000/svg"><path d="m505 846c-22-8-56-32-75-54-43-47-73-57-96-31-24 26-59 24-82-6-11-14-25-25-30-25-19 0-81-45-87-62-10-29 4-56 33-66l27-9-34-21c-43-26-71-69-71-107 0-37 32-91 59-100 11-3 21-16 23-28 2-14 11-23 25-25 13-2 23-10 23-18s11-36 24-61c18-34 36-51 67-64 57-26 109-33 150-21 60 19 114 41 99 42-10 0-11 3-3 11 9 9 21 8 47-5 22-10 54-15 93-13 54 2 58 4 58 27 0 22 5 25 41 28 27 2 52 13 75 31 30 26 34 34 34 79 0 35-6 56-19 70-18 21-18 21 8 45 29 27 33 49 11 67-8 7-25 29-36 50-12 20-33 44-49 53-19 12-30 28-35 54-7 41-54 123-70 123-5 0-3 5 5 10 12 8 9 10-12 10-14 0-28 5-30 10-6 18-129 22-173 6z" transform="matrix(.1 0 0 -.1 0 100)"/></svg>